<svg width="200" height="200" viewBox="0 0 1024 1024" version="1.1" xmlns="http://www.w3.org/2000/svg"><path d="M512 701.866667c-104.533333 0-189.866667-86.044444-189.866667-189.866667V192C322.133333 88.177778 407.466667 2.133333 512 2.133333S701.866667 88.177778 701.866667 192v320c0 104.533333-85.333333 189.866667-189.866667 189.866667z m0-639.288889c-71.822222 0-129.422222 57.6-129.422222 129.422222v320c0 71.822222 57.6 129.422222 129.422222 129.422222S641.422222 583.822222 641.422222 512V192c0-71.822222-57.6-129.422222-129.422222-129.422222z m0 0" class=""></path><path d="M334.222222 1021.866667c-16.355556 0-29.866667-14.222222-29.866666-29.866667 0-16.355556 14.222222-29.866667 29.866666-29.866667h147.2V860.444444c-86.044444-7.111111-167.111111-46.222222-224.711111-110.933333-61.866667-64-94.577778-149.333333-94.577778-237.511111 0-16.355556 14.222222-29.866667 29.866667-29.866667 16.355556 0 29.866667 14.222222 29.866667 29.866667 0 160 129.422222 289.422222 289.422222 289.422222 160 0 289.422222-129.422222 289.422222-289.422222 0-16.355556 14.222222-29.866667 29.866667-29.866667 16.355556 0 29.866667 14.222222 29.866666 29.866667 0 88.177778-32.711111 173.511111-95.288888 238.933333-60.444444 64.711111-138.666667 101.688889-224.711112 110.933334v99.555555h149.333334c16.355556 0 29.866667 14.222222 29.866666 29.866667 0 16.355556-14.222222 29.866667-29.866666 29.866667H334.222222z m0 0" class=""></path><path d="M878.933333 878.933333c-14.933333 14.933333-38.4 14.933333-52.622222 0L145.066667 197.688889c-14.933333-14.933333-14.933333-38.4 0-52.622222 14.933333-14.933333 38.4-14.933333 52.622222 0l680.533333 680.533333c14.933333 14.933333 14.933333 38.4 0.711111 53.333333z" class=""></path></svg>