<svg width="200" height="200" viewBox="0 0 1024 1024" version="1.1" xmlns="http://www.w3.org/2000/svg"><path d="M419.1 188.8V437H170.9V188.8h248.2m10.9-50H160c-21.6 0-39.1 17.5-39.1 39.1v269.9c0 21.6 17.5 39.1 39.1 39.1h270c21.6 0 39.1-17.5 39.1-39.1V177.9c0-21.6-17.5-39.1-39.1-39.1zM865.1 188.8V437H616.9V188.8h248.2m10.9-50H606c-21.6 0-39.1 17.5-39.1 39.1v269.9c0 21.6 17.5 39.1 39.1 39.1h270c21.6 0 39.1-17.5 39.1-39.1V177.9c0-21.6-17.5-39.1-39.1-39.1zM419.1 622v248.2H170.9V622h248.2m10.9-50H160c-21.6 0-39.1 17.5-39.1 39.1V881c0 21.6 17.5 39.1 39.1 39.1h270c21.6 0 39.1-17.5 39.1-39.1V611.2c0-21.6-17.5-39.2-39.1-39.2zM737.1 622c33.1 0 64.3 12.9 87.7 36.3 23.4 23.4 36.3 54.6 36.3 87.7s-12.9 64.3-36.3 87.7c-23.4 23.4-54.6 36.3-87.7 36.3s-64.3-12.9-87.7-36.3c-23.4-23.4-36.3-54.6-36.3-87.7s12.9-64.3 36.3-87.7c23.4-23.3 54.5-36.3 87.7-36.3m0-50C640.9 572 563 650 563 746.1s77.9 174.1 174.1 174.1 174.1-77.9 174.1-174.1S833.2 572 737.1 572z" fill="" class=""></path></svg>